<svg xmlns="http://www.w3.org/2000/svg" width="430" height="430" style="width:100%;height:100%;transform:translate3d(0,0,0);content-visibility:visible" viewBox="0 0 430 430"><defs><clipPath id="a"><path d="M0 0h430v430H0z"/></clipPath><clipPath id="c"><path d="M0 0h430v430H0z"/></clipPath><clipPath id="b"><path d="M0 0h430v430H0z"/></clipPath></defs><g fill="none" clip-path="url(#a)"><g stroke-linecap="round" stroke-linejoin="round" stroke-width="12.04" clip-path="url(#b)" style="display:block"><path stroke="#121330" d="M-355.408-35.922v77.845m0-41.923h337.205m0 0c0 10.053 8.15 18.203 18.203 18.203S18.203 10.053 18.203 0 10.053-18.203 0-18.203-18.203-10.053-18.203 0" class="primary" style="display:block" transform="translate(383.603 114.103)"/><g style="display:block"><path stroke="#121330" d="M115.899 114.102v85.231m161.796-85.231v85.231m-199.486 51.82h.013m-.007 46.707h.013m237.138-46.707h.013m-.007 46.707h.013M131.52 254.583h130.554M149.737 294.43h94.12" class="primary"/><path stroke="#07A889" d="M278.174 348.819H115.42c-40.872 0-74.313-33.441-74.313-74.313q0 0 0 0c0-40.872 33.441-74.313 74.313-74.313h162.754c40.872 0 74.313 33.441 74.313 74.313q0 0 0 0c0 40.872-33.441 74.313-74.313 74.313" class="secondary"/></g></g><g clip-path="url(#c)" style="display:none"><path class="primary" style="display:none"/><g style="display:none"><path class="primary"/><path class="secondary"/></g></g></g></svg>